HIERARCHY
ROOT hip
{
  OFFSET 0.0 0.0 0.0
  CHANNELS 6 Xposition Yposition Zposition Zrotation Yrotation Xrotation
  JOINT torso
  {
    OFFSET 0.0 0.0 0.0
    CHANNELS 3 Zrotation Xrotation Yrotation
    JOINT neck
    {
      OFFSET -8.059630999999968 325.56260699999996 64.6221310000002
      CHANNELS 3 Zrotation Xrotation Yrotation
      JOINT head
      {
        OFFSET 34.685424000000125 375.1179809999999 232.79357900000002
        CHANNELS 3 Zrotation Xrotation Yrotation
        End Site
        {
          OFFSET 0.0 0.0 0.0
        }
      }
    }
    JOINT left_collar
    {
      OFFSET -8.059630999999968 325.56260699999996 64.6221310000002
      CHANNELS 3 Zrotation Xrotation Yrotation
      JOINT left_upper_arm
      {
        OFFSET -124.124665 -15.370300999999927 25.582641999999964
        CHANNELS 3 Zrotation Xrotation Yrotation
        JOINT left_forearm
        {
          OFFSET -268.19913399999996 105.06054699999993 114.74548300000004
          CHANNELS 3 Zrotation Xrotation Yrotation
          JOINT left_hand
          {
            OFFSET -235.82003099999991 -10.198180999999977 -38.67455999999993
            CHANNELS 3 Zrotation Xrotation Yrotation
            End Site
            {
              OFFSET 0.0 0.0 0.0
            }
          }
        }
      }
    }
    JOINT right_collar
    {
      OFFSET -8.059630999999968 325.56260699999996 64.6221310000002
      CHANNELS 3 Zrotation Xrotation Yrotation
      JOINT right_upper_arm
      {
        OFFSET 162.73931899999997 -2.8598030000000563 26.244994999999903
        CHANNELS 3 Zrotation Xrotation Yrotation
        JOINT right_forearm
        {
          OFFSET 284.6506340000001 103.07031299999994 145.84521499999994
          CHANNELS 3 Zrotation Xrotation Yrotation
          JOINT right_hand
          {
            OFFSET 226.332337 -12.198241999999937 -49.27258299999994
            CHANNELS 3 Zrotation Xrotation Yrotation
            End Site
            {
              OFFSET 0.0 0.0 0.0
            }
          }
        }
      }
    }
  }
}
MOTION
Frames: 8
Frame Time: 0.01
389.15606049455243 215.37168167556587 748.9253255448368 0.7497381528394909 0.5231894492778337 -4.085264412768313 -0.4393612964902479 -1.188673758841134 0.062206749371281955 0.5116759327411764 -1.717216866792615 -0.16481422302283283 0.0 0.0 0.0 0.21423215822920005 -0.12438590766814851 1.3429226022592817 0.13378702613489243 1.012435269587464 2.4705046439636984 0.8936662099475137 -0.12274109158347796 -0.46592297448270026 0.0 0.0 0.0 -0.6340973141077593 0.1267687661611185 1.0519165665325538 3.728760197701183 -2.1389455551761585 0.5017581920033352 4.019959686691987 0.8968276568315179 1.3474428202342352 0.0 0.0 0.0
389.08963702990405 215.39421074498745 748.7987147871853 0.8374592868282801 0.4534852543380158 -3.9689338085710766 -0.5012555050797837 -1.129072871690424 0.0763259727815087 0.5523423696693451 -1.712129606313456 -0.19085330101579506 0.0 0.0 0.0 0.18846947538145464 -0.11290357886891232 1.2111276583452668 0.14697124776131562 1.0192897998780153 2.4746693071315082 0.8844236194053722 -0.12061821430673476 -0.47853337268316476 0.0 0.0 0.0 -0.6585570232082788 0.12777393321749303 0.9171938307363312 3.7093940851462035 -2.121650608331494 0.4846521845276248 4.018165360283407 0.8966635087500575 1.359381922761625 0.0 0.0 0.0
389.02725472013367 215.41617245737373 748.6718582894364 0.9194187321629473 0.3857828466158736 -3.860203980266416 -0.5587620069963491 -1.071601264687648 0.08943090769470527 0.5904483527379605 -1.7072737058722063 -0.21525726224698913 0.0 0.0 0.0 0.16477089513939097 -0.10209205391753513 1.0875095571360152 0.15928100484503152 1.0257907712893386 2.4788259084379893 0.8755142544323247 -0.1186061640497684 -0.4900566950327534 0.0 0.0 0.0 -0.681282306408646 0.12861101934096153 0.7901310350877351 3.6892828358388896 -2.104036891502367 0.4677074578117403 3.9825906948616017 0.8892913101904436 1.354277474581135 0.0 0.0 0.0
388.9670468922248 215.43626541464914 748.542541372181 0.9938382822562375 0.32125515106453456 -3.761072386013103 -0.6105970509001127 -1.0173925960660284 0.10124310665864568 0.625345637104864 -1.7031156773830456 -0.23757808200554498 0.0 0.0 0.0 0.14380506700528844 -0.09213635920522277 0.974697423818379 0.17117227559739773 1.032308245488763 2.4834657737503885 0.8647130151833117 -0.11623025797801805 -0.5028316906973516 0.0 0.0 0.0 -0.7017780949499759 0.12926515720395224 0.6731349415647616 3.667578560057729 -2.08535340908842 0.4501861531262716 3.9108844101736007 0.8741845164878589 1.3308520758854765 0.0 0.0 0.0
388.9067859146417 215.4530744442753 748.4081957097977 1.0590668691241385 0.2610201683618318 -3.6732884783670263 -0.6555631936726231 -0.9675121842107426 0.11150677678064037 0.6564619052242582 -1.700180923108792 -0.257410765626079 0.0 0.0 0.0 0.12619110968269323 -0.08320014074502988 0.8750942095153817 0.18318394213666137 1.039272765925055 2.489153102287007 0.849524681913796 -0.11295902735123221 -0.5195074318151734 0.0 0.0 0.0 -0.7195955760832496 0.1297265673304643 0.5683901481161416 3.6433443127608527 -2.064763482104029 0.43125118036291227 3.80127661785905 0.850902239897601 1.2881731468468067 0.0 0.0 0.0
388.84390512248945 215.46508802783694 748.2659436792001 1.1136342133914634 0.20610431504976912 -3.5982838080268857 -0.6925855887710215 -0.9229195479205125 0.11999569252043968 0.6833233499649344 -1.6990499460663602 -0.2744077763900412 0.0 0.0 0.0 0.11247642016296115 -0.07542100066897851 0.7907906866678457 0.1959341773261778 1.0471709580970396 2.496517599037195 0.8272180499615001 -0.10821302525775252 -0.5430106714570828 0.0 0.0 0.0 -0.7343496205160904 0.12999019649202526 0.47778031710433194 3.6155719764298784 -2.0413605138633364 0.4099798180133451 3.65268594948511 0.8191079372931096 1.2257077905277225 0.0 0.0 0.0
388.7755264410572 215.47071647457113 748.112652319036 1.1563006275867358 0.1574083175979598 -3.5371107393403554 -0.7207458686888486 -0.884434397098432 0.1265193318128957 0.7055752204989628 -1.700352983428781 -0.2882922781330183 0.0 0.0 0.0 0.10311641619953463 -0.06890667177215057 0.723487961333814 0.21011655884882927 1.0565400990201257 2.5062449774518947 0.7948651869622818 -0.10137624356731216 -0.5765085966963244 0.0 0.0 0.0 -0.7457347751227767 0.13005519421735873 0.4028173004953127 3.5832022003094197 -2.0141860006745085 0.3853794495856089 3.464828148113933 0.7785924569881598 1.1433755136901769 0.0 0.0 0.0
388.69849349679714 215.46831019023355 747.9449958832255 1.1861011544991622 0.11567737303280419 -3.490392555920513 -0.7393125318774127 -0.8527078738197685 0.1309281422710903 0.7229993350287431 -1.7047629463419307 -0.29886959216650183 0.0 0.0 0.0 0.09845712430653894 -0.06373206883480603 0.6744320469339884 0.2264960589087772 1.0679617366522398 2.519065484051373 0.7493850338658266 -0.09181028160216531 -0.6233681686363601 0.0 0.0 0.0 -0.7535391080541083 0.12992436063138763 0.3445813738094509 3.5451458455937614 -1.9822493844468791 0.3564050806706167 3.238323496180698 0.7293019410611475 1.0415983884989928 0.0 0.0 0.0
